<svg xmlns="http://www.w3.org/2000/svg" width="81" height="81" viewBox="0 0 81 81" fill="none">
  <path d="M40.5712 73.4287C58.9807 73.4287 73.9046 58.5048 73.9046 40.0954C73.9046 21.6859 58.9807 6.76202 40.5712 6.76202C22.1618 6.76202 7.23792 21.6859 7.23792 40.0954C7.23792 58.5048 22.1618 73.4287 40.5712 73.4287Z" fill="#1877F2"/>
  <path d="M52.1574 49.8687L53.5394 40.2897H44.894V34.076C44.894 31.4552 46.102 28.8979 49.974 28.8979H53.9047V20.7426C53.9047 20.7426 50.3377 20.0953 46.927 20.0953C39.8067 20.0953 35.1527 24.683 35.1527 32.9885V40.2897H27.238V49.8687H35.1527V73.026C38.3804 73.563 41.6667 73.563 44.894 73.026V49.8687H52.1574Z" fill="white"/>
</svg>